<svg id="SvgjsSvg1006" width="5000px" height="4116.020322850344px" xmlns="http://www.w3.org/2000/svg" version="1.1" xmlns:xlink="http://www.w3.org/1999/xlink" xmlns:svgjs="http://svgjs.com/svgjs" viewBox="0 0 485.90625 400"><defs id="SvgjsDefs1007"></defs><g id="SvgjsG1009"><svg width="400" height="400" x="42.953125" y="0" xmlns="http://www.w3.org/2000/svg" version="1.1" xmlns:xlink="http://www.w3.org/1999/xlink" xmlns:svgjs="http://svgjs.com/svgjs" preserveAspectRatio="none"><rect width="395" height="395" stroke-width="5" stroke="#04a3bf" stroke-opacity="0.51" fill="#cbf6ff" fill-opacity="1" x="2.5" y="2.5" rx="50%" ry="50%"></rect><defs id="SvgjsDefs1008"></defs></svg></g><g id="SvgjsG1011" transform="rotate(0 242.953125 151.71875)"><svg width="173" viewBox="0 0 100.0004653930664 67.87316131591797" xmlns="http://www.w3.org/2000/svg" version="1.1" xmlns:xlink="http://www.w3.org/1999/xlink" xmlns:svgjs="http://svgjs.com/svgjs" preserveAspectRatio="none" height="117.40625" x="156.453125" y="93.015625"><g><svg data-color="1" xmlns="http://www.w3.org/2000/svg" xmlns:xlink="http://www.w3.org/1999/xlink" version="1.1" x="0px" y="0px" viewBox="-0.0004478432238101959 18.36484718322754 100.0004653930664 67.87316131591797" enable-background="new 0 0 100 100" xml:space="preserve" width="100.0004653930664" height="67.87316131591797" fill="#04a3bf"><g><g><g><path d="M7.308,18.422c0.174-0.005,0.348-0.009,0.521-0.034c1.231-0.035,2.465-0.039,3.693,0.05     c1.248,0.088,2.493,0.237,3.729,0.442c1.263,0.203,2.519,0.458,3.75,0.808c2.897,0.813,5.682,2.114,8.052,3.985     c2.087,1.642,3.834,3.717,5.076,6.066c0.513,0.961,0.938,1.97,1.278,3.004c0.28,0.886,0.527,1.79,0.625,2.716     c-0.088-0.077-0.125-0.207-0.192-0.304c-0.585-1.012-1.261-1.989-2.132-2.776c-0.488-0.427-1.044-0.809-1.683-0.963     c-0.167-0.027-0.373-0.097-0.509,0.041c-1.228,0.85-2.588,1.495-3.985,2.011c-1.362,0.493-2.773,0.858-4.21,1.048     c-0.433,0.081-0.874,0.093-1.311,0.143c-0.364,0.008-0.726,0.058-1.091,0.045c-0.239,0.01-0.479,0.021-0.717,0.005     c-1.321-0.015-2.64-0.158-3.934-0.428c-1.054-0.215-2.095-0.502-3.104-0.876c-1.52-0.568-2.963-1.346-4.264-2.318     c-1.708-1.279-3.167-2.881-4.322-4.674c-1.129-1.763-2.002-3.697-2.53-5.724c-0.017-0.105-0.061-0.21-0.045-0.318     c0.613-0.391,1.288-0.675,1.972-0.916C3.689,18.848,5.501,18.562,7.308,18.422z M6.794,20.928     c-0.361,0.04-0.723,0.075-1.082,0.136c-0.074,0.014-0.184-0.002-0.219,0.083c-0.55,1.272-0.879,2.67-0.734,4.061     c0.036,0.107,0.116,0.192,0.176,0.287c1.232,1.781,2.833,3.313,4.701,4.414c1.39,0.831,2.922,1.403,4.495,1.773     c0.846,0.198,1.702,0.359,2.568,0.431c0.208,0.047,0.424,0.019,0.633,0.064c0.386,0.015,0.772,0.013,1.158,0.035     c0.382-0.025,0.767-0.015,1.149-0.039c0.187-0.039,0.381-0.012,0.568-0.052c1.596-0.15,3.169-0.526,4.67-1.092     c0.082-0.031,0.174-0.05,0.239-0.112c0.156-0.242,0.287-0.5,0.401-0.763c0.222-0.611,0.396-1.243,0.478-1.89     c0.075-0.637,0.077-1.289-0.018-1.924c-0.063-0.18-0.006-0.43-0.197-0.541c-2.26-1.842-4.962-3.093-7.77-3.838     c-0.068-0.021-0.137-0.05-0.209-0.041c0.011,0.244-0.012,0.486-0.037,0.728c-0.198,2.347-1.15,4.643-2.738,6.393     c-0.044,0.037-0.078,0.126-0.146,0.105c-0.352-1.025-0.618-2.08-0.819-3.145c-0.05-0.392-0.146-0.777-0.179-1.173     c-0.071-0.606-0.155-1.213-0.161-1.826c-0.045-0.425-0.031-0.856-0.025-1.284c-0.005-0.198,0.062-0.407,0.014-0.598     c-1.167-0.144-2.338-0.263-3.516-0.291c-0.299-0.017-0.599,0.003-0.897-0.023c-0.465,0.021-0.932,0.019-1.398,0.032     C7.533,20.884,7.161,20.886,6.794,20.928z M17.367,34.613l-0.004,0.036c0.179-0.004,0.359,0.007,0.539-0.002l-0.002-0.034     C17.721,34.604,17.544,34.61,17.367,34.613z"></path></g></g><g><g><path d="M98.024,20.557c0.684,0.24,1.359,0.525,1.973,0.916c0.015,0.108-0.03,0.213-0.046,0.318     c-0.528,2.028-1.401,3.961-2.529,5.725c-1.155,1.793-2.614,3.396-4.322,4.674c-1.302,0.972-2.744,1.75-4.264,2.318     c-1.009,0.374-2.05,0.661-3.104,0.876c-1.294,0.27-2.612,0.414-3.934,0.428c-0.239,0.017-0.479,0.004-0.717-0.005     c-0.365,0.013-0.728-0.037-1.091-0.044c-0.437-0.05-0.879-0.062-1.311-0.143c-1.438-0.19-2.849-0.555-4.211-1.048     c-1.397-0.517-2.758-1.162-3.985-2.011c-0.137-0.138-0.343-0.068-0.51-0.041c-0.638,0.155-1.194,0.536-1.682,0.963     c-0.873,0.788-1.548,1.764-2.133,2.776c-0.068,0.097-0.104,0.228-0.192,0.304c0.099-0.926,0.345-1.83,0.625-2.716     c0.341-1.034,0.766-2.043,1.278-3.004c1.242-2.349,2.989-4.425,5.076-6.066c2.37-1.871,5.154-3.172,8.052-3.985     c1.23-0.35,2.487-0.604,3.75-0.807c1.235-0.206,2.481-0.354,3.729-0.443c1.228-0.089,2.462-0.084,3.693-0.049     c0.172,0.024,0.347,0.029,0.521,0.034C94.498,19.666,96.31,19.952,98.024,20.557z M92.101,21.941     c-0.466-0.014-0.933-0.011-1.398-0.033c-0.298,0.027-0.598,0.007-0.896,0.024c-1.179,0.027-2.351,0.146-3.517,0.29     c-0.048,0.191,0.02,0.4,0.015,0.598c0.005,0.428,0.02,0.858-0.025,1.284c-0.006,0.613-0.09,1.22-0.162,1.826     c-0.032,0.396-0.127,0.781-0.178,1.173c-0.201,1.065-0.467,2.119-0.818,3.145c-0.068,0.021-0.103-0.069-0.147-0.105     c-1.588-1.75-2.54-4.046-2.737-6.393c-0.025-0.241-0.049-0.484-0.037-0.728c-0.073-0.01-0.143,0.019-0.21,0.041     c-2.808,0.745-5.51,1.996-7.771,3.838c-0.189,0.111-0.133,0.36-0.196,0.541c-0.095,0.634-0.093,1.287-0.018,1.924     c0.081,0.646,0.255,1.278,0.477,1.889c0.115,0.264,0.246,0.521,0.402,0.763c0.063,0.062,0.156,0.082,0.238,0.113     c1.5,0.566,3.074,0.942,4.67,1.092c0.188,0.041,0.381,0.014,0.568,0.052c0.382,0.023,0.767,0.014,1.149,0.039     c0.385-0.022,0.771-0.021,1.157-0.035c0.209-0.045,0.424-0.017,0.633-0.064c0.866-0.071,1.723-0.233,2.567-0.43     c1.574-0.37,3.106-0.943,4.496-1.773c1.868-1.101,3.469-2.633,4.701-4.414c0.06-0.094,0.139-0.179,0.176-0.286     c0.145-1.391-0.185-2.789-0.734-4.061c-0.034-0.085-0.145-0.068-0.219-0.083c-0.358-0.061-0.72-0.095-1.082-0.135     C92.839,21.99,92.466,21.988,92.101,21.941z M82.1,35.716l-0.001,0.033c0.18,0.01,0.359-0.001,0.538,0.002l-0.004-0.035     C82.455,35.714,82.278,35.708,82.1,35.716z"></path></g></g></g><g><path d="M39.779,48.31c0.788-0.602,1.826-0.699,2.784-0.667c1.978,0.09,3.88,0.684,5.807,1.085   c0.737,0.15,1.5,0.284,2.252,0.146c2.174-0.351,4.278-1.104,6.49-1.225c0.956-0.044,1.988,0.022,2.805,0.576   c0.627,0.42,0.979,1.134,1.145,1.852c0.1,0.45,0.089,0.942-0.12,1.361c-0.245,0.51-0.686,0.887-1.128,1.222   c-0.845,0.625-1.752,1.16-2.597,1.786c-0.732,0.54-1.429,1.13-2.055,1.791c-0.947,1.041-1.531,2.351-1.977,3.671   c-0.427,1.268-0.71,2.578-1.151,3.841c-0.255,0.713-0.591,1.439-1.208,1.909c-0.021,0.515,0.005,1.031-0.001,1.546   c0.113,2.803,0.739,5.596,1.924,8.144c0.999,2.16,2.429,4.123,4.197,5.717c0.782,0.714,1.64,1.339,2.521,1.925   c1.502,1.014,3.036,1.98,4.574,2.94c0.153,0.099,0.321,0.179,0.454,0.308c-1.285-0.214-2.555-0.522-3.786-0.946   c-1.208-0.42-2.387-0.942-3.452-1.652c-3.604-2.489-6.191-6.333-7.333-10.544c-0.085,0.142-0.112,0.308-0.162,0.464   c-0.737,2.395-1.9,4.666-3.481,6.613c-0.86,1.057-1.835,2.019-2.905,2.862c-1.695,1.373-3.771,2.176-5.858,2.735   c-0.73,0.193-1.47,0.352-2.216,0.467c0.57-0.389,1.171-0.732,1.75-1.109c1.236-0.782,2.469-1.569,3.676-2.396   c1.773-1.189,3.353-2.676,4.599-4.413c1.447-2.001,2.454-4.302,3.039-6.696c0.468-1.915,0.688-3.894,0.624-5.864   c0.017-0.118-0.093-0.18-0.168-0.248c-0.326-0.267-0.548-0.636-0.733-1.009c-0.379-0.785-0.595-1.633-0.835-2.468   c-0.322-1.161-0.646-2.327-1.127-3.435c-0.355-0.818-0.811-1.601-1.399-2.273c-1.104-1.205-2.456-2.146-3.82-3.03   c-0.667-0.459-1.384-0.896-1.867-1.562c-0.342-0.471-0.426-1.09-0.292-1.649C38.908,49.411,39.214,48.734,39.779,48.31z"></path></g></svg></g><defs id="SvgjsDefs1010"></defs></svg></g><g id="SvgjsG1013" transform="rotate(0 242.953125 273.7109375)"><svg xmlns="http://www.w3.org/2000/svg" xmlns:xlink="http://www.w3.org/1999/xlink" width="485.90625" viewBox="0.6100000143051147 14.739999771118164 485.9150390625 60.58000183105469" overflow="visible" style="overflow: visible;" transform="" version="1.1" xmlns:svgjs="http://svgjs.com/svgjs" preserveAspectRatio="none" height="60.578125" x="0" y="243.421875" fill="#000000" stroke="none"><path stroke="none" fill="#013640" d="M57.04 68.87L57.04 68.87L57.04 68.87Q54.73 70.81 52.96 71.90L52.96 71.90L52.96 71.90Q51.19 72.99 49.92 73.53L49.92 73.53L49.92 73.53Q48.47 74.17 47.38 74.32L47.38 74.32L47.38 74.32Q45.86 74.65 44.03 74.22L44.03 74.22L44.03 74.22Q42.20 73.78 40.19 72.78L40.19 72.78L40.19 72.78Q38.17 71.78 36.09 70.33L36.09 70.33L36.09 70.33Q34.00 68.87 31.97 67.22L31.97 67.22L31.97 67.22Q29.94 65.57 28.05 63.82L28.05 63.82L28.05 63.82Q26.16 62.06 24.57 60.46L24.57 60.46L24.57 60.46Q22.98 58.85 21.75 57.50L21.75 57.50L21.75 57.50Q20.53 56.16 19.83 55.28L19.83 55.28L19.83 55.28Q19.22 54.52 18.88 54.02L18.88 54.02L18.88 54.02Q18.53 53.52 18.53 53.04L18.53 53.04L18.53 53.04Q18.53 52.58 18.95 51.99L18.95 51.99L18.95 51.99Q19.38 51.40 20.40 50.44L20.40 50.44L20.40 50.44Q20.95 49.92 21.83 49.06L21.83 49.06L21.83 49.06Q22.71 48.20 23.78 47.11L23.78 47.11L23.78 47.11Q24.85 46.02 26.05 44.76L26.05 44.76L26.05 44.76Q27.25 43.50 28.41 42.20L28.41 42.20L28.41 42.20Q29.58 40.90 30.65 39.60L30.65 39.60L30.65 39.60Q31.73 38.30 32.53 37.13L32.53 37.13L32.53 37.13Q33.33 35.96 33.82 35.01L33.82 35.01L33.82 35.01Q34.30 34.06 34.30 33.39L34.30 33.39L34.30 33.39Q34.30 32.51 32.42 32.51L32.42 32.51L32.42 32.51Q31.70 32.51 31.03 32.48L31.03 32.48L31.03 32.48Q30.46 32.48 29.86 32.47L29.86 32.47L29.86 32.47Q29.27 32.45 28.94 32.51L28.94 32.51L28.94 32.51Q30.52 31.61 31.89 30.80L31.89 30.80L31.89 30.80Q33.27 30.00 34.59 29.41L34.59 29.41L34.59 29.41Q35.90 28.82 37.24 28.47L37.24 28.47L37.24 28.47Q38.57 28.12 40.05 28.12L40.05 28.12L40.05 28.12Q40.72 28.12 41.40 28.17L41.40 28.17L41.40 28.17Q42.08 28.21 42.84 28.37L42.84 28.37L42.84 28.37Q41.44 30.82 40.01 32.80L40.01 32.80L40.01 32.80Q38.57 34.78 37.13 36.45L37.13 36.45L37.13 36.45Q35.69 38.11 34.28 39.51L34.28 39.51L34.28 39.51Q32.88 40.90 31.51 42.16L31.51 42.16L31.51 42.16Q30.15 43.41 28.88 44.59L28.88 44.59L28.88 44.59Q27.61 45.77 26.46 47.04L26.46 47.04L26.46 47.04Q25.91 47.59 25.99 48.35L25.99 48.35L25.99 48.35Q26.07 49.10 27.09 50.25L27.09 50.25L27.09 50.25Q28.70 52.04 30.65 54.14L30.65 54.14L30.65 54.14Q32.60 56.25 34.83 58.37L34.83 58.37L34.83 58.37Q37.05 60.49 39.49 62.48L39.49 62.48L39.49 62.48Q41.93 64.48 44.47 66.03L44.47 66.03L44.47 66.03Q47.01 67.57 49.63 68.49L49.63 68.49L49.63 68.49Q52.25 69.42 54.86 69.42L54.86 69.42L54.86 69.42Q56.22 69.42 57.04 68.87ZM25.25 68.48L25.25 68.48L25.25 68.48Q23.46 69.69 21.74 70.72L21.74 70.72L21.74 70.72Q20.01 71.75 18.42 72.52L18.42 72.52L18.42 72.52Q16.83 73.29 15.42 73.78L15.42 73.78L15.42 73.78Q14.02 74.26 12.84 74.38L12.84 74.38L12.84 74.38Q11.66 74.47 10.75 74.43L10.75 74.43L10.75 74.43Q9.84 74.38 9.25 74.00L9.25 74.00L9.25 74.00Q8.66 73.63 8.36 72.79L8.36 72.79L8.36 72.79Q8.05 71.96 8.05 70.48L8.05 70.48L8.05 70.48Q8.05 69.72 8.07 67.84L8.07 67.84L8.07 67.84Q8.08 65.97 8.10 63.38L8.10 63.38L8.10 63.38Q8.11 60.79 8.14 57.72L8.14 57.72L8.14 57.72Q8.17 54.64 8.20 51.50L8.20 51.50L8.20 51.50Q8.23 48.35 8.26 45.33L8.26 45.33L8.26 45.33Q8.29 42.32 8.33 39.87L8.33 39.87L8.33 39.87Q8.36 37.42 8.39 35.74L8.39 35.74L8.39 35.74Q8.42 34.06 8.45 33.57L8.45 33.57L8.45 33.57Q8.48 33.03 8.22 32.67L8.22 32.67L8.22 32.67Q7.96 32.30 7.52 32.07L7.52 32.07L7.52 32.07Q7.08 31.85 6.48 31.76L6.48 31.76L6.48 31.76Q5.87 31.67 5.21 31.67L5.21 31.67L5.21 31.67Q4.15 31.67 2.92 31.86L2.92 31.86L2.92 31.86Q1.70 32.06 0.61 32.33L0.61 32.33L0.61 32.33Q2.12 31.36 3.62 30.50L3.62 30.50L3.62 30.50Q5.12 29.64 6.63 29.00L6.63 29.00L6.63 29.00Q8.14 28.37 9.72 28.00L9.72 28.00L9.72 28.00Q11.29 27.64 12.96 27.64L12.96 27.64L12.96 27.64Q13.62 27.64 14.23 27.72L14.23 27.72L14.23 27.72Q14.83 27.79 15.30 27.96L15.30 27.96L15.30 27.96Q15.77 28.12 16.04 28.41L16.04 28.41L16.04 28.41Q16.32 28.70 16.32 29.12L16.32 29.12L16.32 29.12Q16.32 30.27 16.29 34.81L16.29 34.81L16.29 34.81Q16.29 36.75 16.27 39.63L16.27 39.63L16.27 39.63Q16.26 42.50 16.24 46.58L16.24 46.58L16.24 46.58Q16.23 50.65 16.21 56.02L16.21 56.02L16.21 56.02Q16.20 61.39 16.20 68.36L16.20 68.36L16.20 68.36Q17.77 68.63 19.09 68.75L19.09 68.75L19.09 68.75Q20.40 68.87 21.46 68.87L21.46 68.87L21.46 68.87Q22.40 68.87 23.10 68.81L23.10 68.81L23.10 68.81Q23.79 68.75 24.28 68.69L24.28 68.69L24.28 68.69Q24.82 68.60 25.25 68.48ZM99.60 68.60L99.60 68.60L99.60 68.60Q98.33 69.87 96.86 70.92L96.86 70.92L96.86 70.92Q95.39 71.96 93.91 72.72L93.91 72.72L93.91 72.72Q92.43 73.47 91.03 73.93L91.03 73.93L91.03 73.93Q89.64 74.38 88.49 74.44L88.49 74.44L88.49 74.44Q87.86 74.50 86.86 74.43L86.86 74.43L86.86 74.43Q85.86 74.35 84.93 73.90L84.93 73.90L84.93 73.90Q84.01 73.44 83.34 72.47L83.34 72.47L83.34 72.47Q82.68 71.51 82.68 69.72L82.68 69.72L82.68 66.12L82.68 66.12Q81.01 67.75 79.17 69.25L79.17 69.25L79.17 69.25Q77.32 70.75 75.37 71.91L75.37 71.91L75.37 71.91Q73.42 73.08 71.42 73.76L71.42 73.76L71.42 73.76Q69.42 74.44 67.48 74.44L67.48 74.44L67.48 74.44Q65.00 74.44 63.12 73.34L63.12 73.34L63.12 73.34Q61.25 72.23 59.97 70.48L59.97 70.48L59.97 70.48Q58.70 68.72 58.07 66.54L58.07 66.54L58.07 66.54Q57.43 64.36 57.43 62.21L57.43 62.21L57.43 62.21Q57.43 60.61 57.67 59.05L57.67 59.05L57.67 59.05Q57.92 57.49 58.29 56.10L58.29 56.10L58.29 56.10Q58.67 54.70 59.17 53.58L59.17 53.58L59.17 53.58Q59.67 52.46 60.22 51.74L60.22 51.74L60.22 51.74Q61.21 50.38 62.76 49.10L62.76 49.10L62.76 49.10Q64.30 47.83 66.13 46.71L66.13 46.71L66.13 46.71Q67.97 45.59 70.02 44.68L70.02 44.68L70.02 44.68Q72.08 43.78 74.13 43.11L74.13 43.11L74.13 43.11Q76.17 42.44 78.11 42.08L78.11 42.08L78.11 42.08Q80.04 41.72 81.68 41.72L81.68 41.72L81.68 41.72Q83.38 41.72 85.68 41.88L85.68 41.88L85.68 41.88Q87.98 42.05 90.91 42.56L90.91 42.56L90.91 42.56Q90.79 46.05 90.70 48.71L90.70 48.71L90.70 48.71Q90.61 51.37 90.55 53.48L90.55 53.48L90.55 53.48Q90.49 55.58 90.46 57.31L90.46 57.31L90.46 57.31Q90.43 59.03 90.43 60.67L90.43 60.67L90.43 60.67Q90.43 62.33 90.37 63.94L90.37 63.94L90.37 63.94Q90.31 65.54 90.61 66.81L90.61 66.81L90.61 66.81Q90.91 68.08 91.81 68.87L91.81 68.87L91.81 68.87Q92.70 69.66 94.58 69.66L94.58 69.66L94.58 69.66Q95.70 69.66 96.97 69.37L96.97 69.37L96.97 69.37Q98.24 69.08 99.60 68.60ZM82.74 46.92L82.74 46.92L82.74 46.92Q80.92 46.44 78.86 46.24L78.86 46.24L78.86 46.24Q76.81 46.05 74.93 46.05L74.93 46.05L74.93 46.05Q73.90 46.05 72.98 46.11L72.98 46.11L72.98 46.11Q72.05 46.17 71.30 46.26L71.30 46.26L71.30 46.26Q70.54 46.35 69.96 46.48L69.96 46.48L69.96 46.48Q69.39 46.62 69.09 46.80L69.09 46.80L69.09 46.80Q68.54 47.08 67.81 48.12L67.81 48.12L67.81 48.12Q67.09 49.16 66.42 50.71L66.42 50.71L66.42 50.71Q65.76 52.25 65.29 54.19L65.29 54.19L65.29 54.19Q64.82 56.13 64.82 58.19L64.82 58.19L64.82 58.19Q64.82 60.15 65.39 62.14L65.39 62.14L65.39 62.14Q65.97 64.12 67.07 65.69L67.07 65.69L67.07 65.69Q68.18 67.27 69.80 68.25L69.80 68.25L69.80 68.25Q71.42 69.24 73.51 69.24L73.51 69.24L73.51 69.24Q75.47 69.24 76.99 68.60L76.99 68.60L76.99 68.60Q78.50 67.96 79.62 66.86L79.62 66.86L79.62 66.86Q80.74 65.75 81.48 64.27L81.48 64.27L81.48 64.27Q82.22 62.79 82.68 61.06L82.68 61.06L82.68 61.06Q82.68 59.79 82.68 58.35L82.68 58.35L82.68 58.35Q82.68 56.91 82.68 55.19L82.68 55.19L82.68 55.19Q82.68 53.46 82.69 51.42L82.69 51.42L82.69 51.42Q82.71 49.38 82.74 46.92ZM137.57 51.62L137.57 51.80L137.57 51.80Q137.48 53.58 137.32 56.19L137.32 56.19L137.32 56.19Q137.17 58.43 136.98 61.80L136.98 61.80L136.98 61.80Q136.78 65.18 136.45 69.78L136.45 69.78L128.70 74.93L128.70 74.93Q129.03 72.93 129.26 70.67L129.26 70.67L129.26 70.67Q129.48 68.42 129.63 66.12L129.63 66.12L129.63 66.12Q129.79 63.82 129.86 61.56L129.86 61.56L129.86 61.56Q129.94 59.31 129.94 57.34L129.94 57.34L129.94 57.34Q129.94 55.46 129.77 53.61L129.77 53.61L129.77 53.61Q129.60 51.77 128.95 50.31L128.95 50.31L128.95 50.31Q128.30 48.86 127.02 47.95L127.02 47.95L127.02 47.95Q125.73 47.04 123.49 47.04L123.49 47.04L123.49 47.04Q121.49 47.04 120.08 48.17L120.08 48.17L120.08 48.17Q118.68 49.29 117.68 51.95L117.68 51.95L117.68 51.95Q116.68 54.61 116.03 58.99L116.03 58.99L116.03 58.99Q115.38 63.36 114.92 69.90L114.92 69.90L107.69 75.11L107.69 75.11Q107.96 69.27 108.11 65.15L108.11 65.15L108.11 65.15Q108.26 61.03 108.32 58.37L108.32 58.37L108.32 58.37Q108.41 55.25 108.41 53.22L108.41 53.22L108.41 53.22Q108.56 49.56 107.41 47.48L107.41 47.48L107.41 47.48Q106.26 45.41 103.90 45.41L103.90 45.41L103.90 45.41Q103.15 45.41 102.31 45.64L102.31 45.64L102.31 45.64Q101.48 45.86 100.54 46.29L100.54 46.29L100.54 46.29Q101.72 45.44 103.02 44.55L103.02 44.55L103.02 44.55Q104.33 43.65 105.69 42.93L105.69 42.93L105.69 42.93Q107.05 42.20 108.43 41.73L108.43 41.73L108.43 41.73Q109.81 41.26 111.14 41.26L111.14 41.26L111.14 41.26Q112.41 41.26 113.45 41.78L113.45 41.78L113.45 41.78Q114.50 42.29 115.04 43.50L115.04 43.50L115.04 43.50Q115.53 44.56 115.75 45.94L115.75 45.94L115.75 45.94Q115.98 47.32 116.04 48.95L116.04 48.95L116.04 48.95Q117.34 47.41 118.99 45.97L118.99 45.97L118.99 45.97Q120.64 44.53 122.41 43.46L122.41 43.46L122.41 43.46Q124.19 42.38 125.97 41.79L125.97 41.79L125.97 41.79Q127.76 41.20 129.30 41.38L129.30 41.38L129.30 41.38Q130.39 41.54 131.59 41.93L131.59 41.93L131.59 41.93Q132.78 42.32 133.86 43.08L133.86 43.08L133.86 43.08Q134.93 43.84 135.81 45.00L135.81 45.00L135.81 45.00Q136.69 46.17 137.14 47.89L137.14 47.89L137.14 47.89Q138.44 46.50 140.02 45.24L140.02 45.24L140.02 45.24Q141.59 43.99 143.23 43.08L143.23 43.08L143.23 43.08Q144.86 42.17 146.47 41.70L146.47 41.70L146.47 41.70Q148.07 41.23 149.46 41.38L149.46 41.38L149.46 41.38Q150.83 41.57 152.29 42.13L152.29 42.13L152.29 42.13Q153.76 42.69 154.97 43.88L154.97 43.88L154.97 43.88Q156.18 45.08 156.96 47.00L156.96 47.00L156.96 47.00Q157.73 48.92 157.64 51.80L157.64 51.80L157.64 51.80Q157.55 55.22 157.32 58.09L157.32 58.09L157.32 58.09Q157.09 60.97 157.09 63.15L157.09 63.15L157.09 63.15Q157.09 64.45 157.32 65.60L157.32 65.60L157.32 65.60Q157.55 66.75 158.09 67.60L158.09 67.60L158.09 67.60Q158.64 68.45 159.54 68.93L159.54 68.93L159.54 68.93Q160.45 69.42 161.82 69.42L161.82 69.42L161.82 69.42Q163.03 69.42 164.37 68.95L164.37 68.95L164.37 68.95Q165.72 68.48 167.08 67.51L167.08 67.51L167.08 67.51Q164.84 69.48 163.01 70.81L163.01 70.81L163.01 70.81Q161.18 72.14 159.61 72.96L159.61 72.96L159.61 72.96Q158.03 73.78 156.68 74.12L156.68 74.12L156.68 74.12Q155.34 74.47 154.07 74.44L154.07 74.44L154.07 74.44Q152.79 74.41 151.89 73.94L151.89 73.94L151.89 73.94Q150.98 73.47 150.43 72.49L150.43 72.49L150.43 72.49Q149.89 71.51 149.68 69.95L149.68 69.95L149.68 69.95Q149.46 68.39 149.52 66.12L149.52 66.12L149.52 66.12Q149.62 64.12 149.75 61.71L149.75 61.71L149.75 61.71Q149.89 59.31 149.89 56.94L149.89 56.94L149.89 56.94Q149.89 55.01 149.72 53.21L149.72 53.21L149.72 53.21Q149.55 51.40 148.92 50.04L148.92 50.04L148.92 50.04Q148.28 48.68 147.04 47.86L147.04 47.86L147.04 47.86Q145.80 47.04 143.65 47.04L143.65 47.04L143.65 47.04Q142.47 47.04 141.53 47.38L141.53 47.38L141.53 47.38Q140.59 47.71 139.85 48.33L139.85 48.33L139.85 48.33Q139.11 48.95 138.55 49.78L138.55 49.78L138.55 49.78Q137.99 50.62 137.57 51.62L137.57 51.62ZM187.55 51.62L209.74 44.38L209.74 44.38Q206.26 46.08 203.28 47.39L203.28 47.39L203.28 47.39Q200.29 48.71 198.02 49.62L198.02 49.62L198.02 49.62Q195.39 50.68 193.18 51.50L193.18 51.50L193.18 51.50Q191.82 52.07 190.17 52.66L190.17 52.66L190.17 52.66Q188.52 53.25 186.73 53.81L186.73 53.81L186.73 53.81Q184.95 54.37 183.08 54.93L183.08 54.93L183.08 54.93Q181.22 55.49 179.41 56.04L179.41 56.04L179.41 56.64L179.41 56.64Q179.41 59.76 180.39 62.24L180.39 62.24L180.39 62.24Q181.37 64.72 183.13 66.47L183.13 66.47L183.13 66.47Q184.89 68.21 187.34 69.13L187.34 69.13L187.34 69.13Q189.79 70.05 192.76 70.05L192.76 70.05L192.76 70.05Q194.30 70.05 195.83 69.81L195.83 69.81L195.83 69.81Q197.36 69.57 198.74 69.16L198.74 69.16L198.74 69.16Q200.11 68.75 201.32 68.18L201.32 68.18L201.32 68.18Q202.54 67.60 203.47 66.93L203.47 66.93L203.47 66.93Q201.17 68.99 198.74 70.39L198.74 70.39L198.74 70.39Q196.30 71.78 193.86 72.64L193.86 72.64L193.86 72.64Q191.42 73.50 189.05 73.90L189.05 73.90L189.05 73.90Q186.67 74.29 184.49 74.32L184.49 74.32L184.49 74.32Q182.28 74.38 180.15 73.64L180.15 73.64L180.15 73.64Q178.01 72.90 176.26 71.38L176.26 71.38L176.26 71.38Q174.50 69.87 173.29 67.62L173.29 67.62L173.29 67.62Q172.08 65.36 171.72 62.36L171.72 62.36L171.72 62.36Q171.57 61.30 171.58 60.32L171.58 60.32L171.58 60.32Q171.60 59.34 171.78 58.37L171.78 58.37L171.78 58.37Q170.72 58.76 169.85 59.09L169.85 59.09L169.85 59.09Q168.99 59.43 168.45 59.76L168.45 59.76L168.45 59.76Q169.33 59.15 170.20 58.62L170.20 58.62L170.20 58.62Q171.08 58.09 171.93 57.64L171.93 57.64L171.93 57.64Q172.44 55.28 173.70 53.13L173.70 53.13L173.70 53.13Q174.96 50.98 176.73 49.13L176.73 49.13L176.73 49.13Q178.50 47.29 180.68 45.79L180.68 45.79L180.68 45.79Q182.86 44.29 185.20 43.23L185.20 43.23L185.20 43.23Q187.55 42.17 189.97 41.60L189.97 41.60L189.97 41.60Q192.39 41.02 194.66 41.02L194.66 41.02L194.66 41.02Q196.18 41.02 197.22 41.47L197.22 41.47L197.22 41.47Q198.27 41.93 198.63 43.08L198.63 43.08L198.63 43.08Q198.81 44.29 197.75 45.68L197.75 45.68L197.75 45.68Q197.30 46.29 196.53 46.97L196.53 46.97L196.53 46.97Q195.75 47.65 194.53 48.41L194.53 48.41L194.53 48.41Q193.30 49.16 191.59 49.98L191.59 49.98L191.59 49.98Q189.88 50.80 187.55 51.62L187.55 51.62ZM185.73 51.74L185.73 51.74L185.73 51.74Q187.04 51.16 188.08 50.50L188.08 50.50L188.08 50.50Q189.12 49.83 189.71 49.10L189.71 49.10L189.71 49.10Q190.30 48.38 190.33 47.59L190.33 47.59L190.33 47.59Q190.37 46.80 189.70 45.92L189.70 45.92L189.70 45.92Q189.25 45.26 188.44 45.00L188.44 45.00L188.44 45.00Q187.64 44.74 186.79 44.74L186.79 44.74L186.79 44.74Q186.01 44.74 185.28 44.91L185.28 44.91L185.28 44.91Q184.55 45.08 184.01 45.35L184.01 45.35L184.01 45.35Q183.64 45.56 183.01 46.27L183.01 46.27L183.01 46.27Q182.37 46.98 181.71 48.12L181.71 48.12L181.71 48.12Q181.04 49.25 180.45 50.75L180.45 50.75L180.45 50.75Q179.86 52.25 179.59 54.04L179.59 54.04L179.59 54.04Q181.50 53.34 183.04 52.80L183.04 52.80L183.04 52.80Q184.58 52.25 185.73 51.74ZM231.63 67.69L231.63 67.69L231.63 67.69Q228.60 69.78 226.54 71.13L226.54 71.13L226.54 71.13Q224.49 72.47 222.96 73.28L222.96 73.28L222.96 73.28Q221.43 74.08 220.20 74.38L220.20 74.38L220.20 74.38Q218.98 74.68 217.61 74.68L217.61 74.68L217.61 74.68Q216.43 74.68 215.33 74.12L215.33 74.12L215.33 74.12Q214.22 73.56 213.36 72.07L213.36 72.07L213.36 72.07Q212.50 70.57 211.98 67.95L211.98 67.95L211.98 67.95Q211.47 65.33 211.47 61.18L211.47 61.18L211.47 61.18Q211.47 57.10 211.56 52.62L211.56 52.62L211.56 52.62Q211.65 48.13 211.76 43.62L211.76 43.62L211.76 43.62Q211.86 39.11 211.95 34.78L211.95 34.78L211.95 34.78Q212.04 30.46 212.04 26.70L212.04 26.70L212.04 26.70Q212.04 23.01 210.92 20.95L210.92 20.95L210.92 20.95Q209.80 18.89 207.50 18.89L207.50 18.89L207.50 18.89Q206.81 18.89 205.96 19.09L205.96 19.09L205.96 19.09Q205.11 19.28 204.17 19.77L204.17 19.77L204.17 19.77Q205.35 18.92 206.65 18.03L206.65 18.03L206.65 18.03Q207.96 17.13 209.30 16.41L209.30 16.41L209.30 16.41Q210.65 15.68 212.03 15.21L212.03 15.21L212.03 15.21Q213.41 14.74 214.77 14.74L214.77 14.74L214.77 14.74Q216.49 14.74 217.48 15.61L217.48 15.61L217.48 15.61Q218.46 16.47 218.93 17.74L218.93 17.74L218.93 17.74Q219.40 19.01 219.51 20.51L219.51 20.51L219.51 20.51Q219.61 22.01 219.61 23.28L219.61 23.28L219.61 23.28Q219.58 25.22 219.54 27.94L219.54 27.94L219.54 27.94Q219.49 30.67 219.43 33.80L219.43 33.80L219.43 33.80Q219.37 36.93 219.31 40.29L219.31 40.29L219.31 40.29Q219.25 43.65 219.19 46.88L219.19 46.88L219.19 46.88Q219.13 50.10 219.08 53.01L219.08 53.01L219.08 53.01Q219.04 55.92 218.98 58.13L218.98 58.13L218.98 58.13Q218.92 61.09 219.40 63.26L219.40 63.26L219.40 63.26Q219.88 65.42 220.79 66.81L220.79 66.81L220.79 66.81Q221.70 68.21 222.97 68.87L222.97 68.87L222.97 68.87Q224.24 69.54 225.79 69.54L225.79 69.54L225.79 69.54Q228.57 69.54 231.63 67.69ZM270.38 55.64L270.38 55.64L270.38 55.64Q270.38 58.16 269.69 60.21L269.69 60.21L269.69 60.21Q268.99 62.27 268.02 63.82L268.02 63.82L268.02 63.82Q267.05 65.36 266.05 66.39L266.05 66.39L266.05 66.39Q265.05 67.42 264.45 67.87L264.45 67.87L264.45 67.87Q262.69 69.14 260.85 70.36L260.85 70.36L260.85 70.36Q259.00 71.57 257.05 72.52L257.05 72.52L257.05 72.52Q255.09 73.47 253.04 74.05L253.04 74.05L253.04 74.05Q250.98 74.62 248.80 74.62L248.80 74.62L248.80 74.62Q245.56 74.62 242.67 73.81L242.67 73.81L242.67 73.81Q239.78 72.99 237.61 71.35L237.61 71.35L237.61 71.35Q235.45 69.72 234.19 67.24L234.19 67.24L234.19 67.24Q232.93 64.75 232.93 61.42L232.93 61.42L232.93 61.42Q232.93 58.49 233.95 55.90L233.95 55.90L233.95 55.90Q234.96 53.31 236.67 51.13L236.67 51.13L236.67 51.13Q238.38 48.95 240.68 47.21L240.68 47.21L240.68 47.21Q242.98 45.47 245.56 44.26L245.56 44.26L245.56 44.26Q248.13 43.05 250.86 42.41L250.86 42.41L250.86 42.41Q253.58 41.78 256.12 41.78L256.12 41.78L256.12 41.78Q259.27 41.78 261.89 42.82L261.89 42.82L261.89 42.82Q264.51 43.87 266.40 45.73L266.40 45.73L266.40 45.73Q268.29 47.59 269.34 50.13L269.34 50.13L269.34 50.13Q270.38 52.68 270.38 55.64ZM249.49 45.29L249.49 45.29L249.49 45.29Q247.95 45.29 246.68 45.85L246.68 45.85L246.68 45.85Q245.41 46.41 244.42 47.36L244.42 47.36L244.42 47.36Q243.44 48.32 242.73 49.57L242.73 49.57L242.73 49.57Q242.02 50.83 241.55 52.21L241.55 52.21L241.55 52.21Q241.08 53.58 240.85 54.99L240.85 54.99L240.85 54.99Q240.62 56.40 240.62 57.64L240.62 57.64L240.62 57.64Q240.62 60.46 241.65 62.89L241.65 62.89L241.65 62.89Q242.68 65.33 244.48 67.15L244.48 67.15L244.48 67.15Q246.28 68.96 248.69 69.99L248.69 69.99L248.69 69.99Q251.10 71.02 253.82 71.02L253.82 71.02L253.82 71.02Q255.52 71.02 257.11 70.37L257.11 70.37L257.11 70.37Q258.70 69.72 259.92 68.31L259.92 68.31L259.92 68.31Q261.15 66.90 261.89 64.68L261.89 64.68L261.89 64.68Q262.63 62.45 262.63 59.31L262.63 59.31L262.63 59.31Q262.63 56.55 261.60 54.01L261.60 54.01L261.60 54.01Q260.57 51.46 258.79 49.53L258.79 49.53L258.79 49.53Q257.00 47.59 254.61 46.44L254.61 46.44L254.61 46.44Q252.22 45.29 249.49 45.29ZM307.35 66.33L307.35 66.33L307.35 66.33Q304.99 68.24 302.69 69.75L302.69 69.75L302.69 69.75Q300.38 71.26 298.22 72.29L298.22 72.29L298.22 72.29Q296.06 73.32 294.07 73.82L294.07 73.82L294.07 73.82Q292.09 74.32 290.36 74.20L290.36 74.20L290.36 74.20Q288.61 74.08 287.14 73.35L287.14 73.35L287.14 73.35Q285.67 72.63 284.61 71.17L284.61 71.17L284.61 71.17Q283.55 69.72 282.98 67.45L282.98 67.45L282.98 67.45Q282.40 65.18 282.49 61.97L282.49 61.97L282.49 61.97Q282.52 60.24 282.61 57.88L282.61 57.88L282.61 57.88Q282.67 55.85 282.74 52.86L282.74 52.86L282.74 52.86Q282.80 49.86 282.86 45.86L282.86 45.86L282.86 45.86Q282.22 45.92 281.30 46.02L281.30 46.02L281.30 46.02Q280.37 46.11 279.30 46.33L279.30 46.33L279.30 46.33Q278.22 46.56 277.07 46.94L277.07 46.94L277.07 46.94Q275.92 47.32 274.80 47.89L274.80 47.89L274.80 47.89Q275.71 47.32 276.64 46.71L276.64 46.71L276.64 46.71Q277.56 46.11 278.32 45.59L278.32 45.59L278.32 45.59Q279.19 45.02 280.01 44.44L280.01 44.44L280.01 44.44Q280.83 44.02 281.46 42.90L281.46 42.90L281.46 42.90Q282.01 41.93 282.46 40.14L282.46 40.14L282.46 40.14Q282.92 38.36 282.92 35.33L282.92 35.33L282.92 35.33Q285.04 34.27 286.49 33.39L286.49 33.39L286.49 33.39Q287.94 32.51 288.85 31.91L288.85 31.91L288.85 31.91Q289.91 31.18 290.55 30.67L290.55 30.67L290.42 40.84L290.42 40.84Q291.21 40.87 291.97 40.88L291.97 40.88L291.97 40.88Q292.73 40.90 293.30 40.90L293.30 40.90L294.57 40.90L294.57 40.90Q297.18 40.96 299.51 40.84L299.51 40.84L299.51 40.84Q300.51 40.81 301.55 40.72L301.55 40.72L301.55 40.72Q302.59 40.63 303.56 40.49L303.56 40.49L303.56 40.49Q304.53 40.35 305.36 40.14L305.36 40.14L305.36 40.14Q306.20 39.93 306.77 39.66L306.77 39.66L306.77 39.66Q305.14 41.29 303.19 42.41L303.19 42.41L303.19 42.41Q301.23 43.53 299.11 44.24L299.11 44.24L299.11 44.24Q296.99 44.96 294.77 45.32L294.77 45.32L294.77 45.32Q292.54 45.68 290.36 45.80L290.36 45.80L290.36 45.80Q290.30 50.13 290.27 54.31L290.27 54.31L290.27 54.31Q290.24 58.49 290.24 62.54L290.24 62.54L290.24 62.54Q290.27 63.88 290.91 65.06L290.91 65.06L290.91 65.06Q291.54 66.24 292.68 67.12L292.68 67.12L292.68 67.12Q293.82 67.99 295.36 68.52L295.36 68.52L295.36 68.52Q296.90 69.05 298.78 69.05L298.78 69.05L298.78 69.05Q300.69 69.05 302.88 68.42L302.88 68.42L302.88 68.42Q305.08 67.78 307.35 66.33ZM374.29 67.57L374.29 67.57L374.29 67.57Q372.92 68.93 371.32 69.99L371.32 69.99L371.32 69.99Q369.71 71.05 368.05 71.85L368.05 71.85L368.05 71.85Q366.38 72.66 364.70 73.22L364.70 73.22L364.70 73.22Q363.02 73.78 361.48 74.17L361.48 74.17L361.48 74.17Q357.85 75.08 354.18 75.32L354.18 75.32L354.18 75.32Q349.01 75.26 344.83 73.76L344.83 73.76L344.83 73.76Q340.65 72.26 337.72 69.52L337.72 69.52L337.72 69.52Q334.78 66.78 333.21 62.86L333.21 62.86L333.21 62.86Q331.63 58.94 331.63 54.04L331.63 54.04L331.63 54.04Q331.63 50.01 333.10 46.56L333.10 46.56L333.10 46.56Q334.57 43.11 337.05 40.28L337.05 40.28L337.05 40.28Q339.53 37.45 342.80 35.28L342.80 35.28L342.80 35.28Q346.07 33.12 349.67 31.64L349.67 31.64L349.67 31.64Q353.28 30.15 356.98 29.38L356.98 29.38L356.98 29.38Q360.69 28.61 364.05 28.61L364.05 28.61L364.05 28.61Q365.05 28.61 366.22 28.65L366.22 28.65L366.22 28.65Q367.38 28.70 368.52 28.82L368.52 28.82L368.52 28.82Q369.65 28.94 370.67 29.17L370.67 29.17L370.67 29.17Q371.68 29.40 372.36 29.79L372.36 29.79L372.36 29.79Q373.04 30.18 373.32 30.74L373.32 30.74L373.32 30.74Q373.59 31.30 373.23 32.09L373.23 32.09L373.23 32.09Q372.77 32.36 371.74 33.06L371.74 33.06L371.74 33.06Q370.83 33.66 369.19 34.72L369.19 34.72L369.19 34.72Q367.54 35.78 364.78 37.54L364.78 37.54L364.78 37.54Q365.57 37.02 365.93 36.57L365.93 36.57L365.93 36.57Q366.29 36.12 366.29 35.69L366.29 35.69L366.29 35.69Q366.29 35.03 365.70 34.51L365.70 34.51L365.70 34.51Q365.11 34.00 364.21 33.63L364.21 33.63L364.21 33.63Q363.30 33.27 362.18 33.04L362.18 33.04L362.18 33.04Q361.06 32.82 360.03 32.68L360.03 32.68L360.03 32.68Q359.00 32.54 358.15 32.50L358.15 32.50L358.15 32.50Q357.30 32.45 356.91 32.45L356.91 32.45L356.91 32.45Q348.07 32.45 343.56 36.96L343.56 36.96L343.56 36.96Q339.05 41.47 339.05 50.31L339.05 50.31L339.05 50.31Q339.05 54.98 340.56 58.64L340.56 58.64L340.56 58.64Q342.08 62.30 344.74 64.92L344.74 64.92L344.74 64.92Q347.40 67.54 351.07 69.08L351.07 69.08L351.07 69.08Q354.73 70.63 359.03 71.02L359.03 71.02L359.03 71.02Q361.42 71.17 363.99 70.84L363.99 70.84L363.99 70.84Q366.20 70.57 368.91 69.84L368.91 69.84L368.91 69.84Q371.62 69.11 374.29 67.57ZM422.54 68.60L422.54 68.60L422.54 68.60Q421.27 69.87 419.80 70.92L419.80 70.92L419.80 70.92Q418.34 71.96 416.85 72.72L416.85 72.72L416.85 72.72Q415.37 73.47 413.98 73.93L413.98 73.93L413.98 73.93Q412.58 74.38 411.43 74.44L411.43 74.44L411.43 74.44Q410.80 74.50 409.80 74.43L409.80 74.43L409.80 74.43Q408.80 74.35 407.88 73.90L407.88 73.90L407.88 73.90Q406.95 73.44 406.29 72.47L406.29 72.47L406.29 72.47Q405.62 71.51 405.62 69.72L405.62 69.72L405.62 66.12L405.62 66.12Q403.96 67.75 402.11 69.25L402.11 69.25L402.11 69.25Q400.26 70.75 398.31 71.91L398.31 71.91L398.31 71.91Q396.36 73.08 394.36 73.76L394.36 73.76L394.36 73.76Q392.36 74.44 390.42 74.44L390.42 74.44L390.42 74.44Q387.94 74.44 386.06 73.34L386.06 73.34L386.06 73.34Q384.19 72.23 382.92 70.48L382.92 70.48L382.92 70.48Q381.64 68.72 381.01 66.54L381.01 66.54L381.01 66.54Q380.37 64.36 380.37 62.21L380.37 62.21L380.37 62.21Q380.37 60.61 380.62 59.05L380.62 59.05L380.62 59.05Q380.86 57.49 381.24 56.10L381.24 56.10L381.24 56.10Q381.61 54.70 382.11 53.58L382.11 53.58L382.11 53.58Q382.61 52.46 383.16 51.74L383.16 51.74L383.16 51.74Q384.16 50.38 385.70 49.10L385.70 49.10L385.70 49.10Q387.25 47.83 389.08 46.71L389.08 46.71L389.08 46.71Q390.91 45.59 392.97 44.68L392.97 44.68L392.97 44.68Q395.03 43.78 397.07 43.11L397.07 43.11L397.07 43.11Q399.11 42.44 401.05 42.08L401.05 42.08L401.05 42.08Q402.99 41.72 404.62 41.72L404.62 41.72L404.62 41.72Q406.32 41.72 408.62 41.88L408.62 41.88L408.62 41.88Q410.92 42.05 413.86 42.56L413.86 42.56L413.86 42.56Q413.73 46.05 413.64 48.71L413.64 48.71L413.64 48.71Q413.55 51.37 413.49 53.48L413.49 53.48L413.49 53.48Q413.43 55.58 413.40 57.31L413.40 57.31L413.40 57.31Q413.37 59.03 413.37 60.67L413.37 60.67L413.37 60.67Q413.37 62.33 413.31 63.94L413.31 63.94L413.31 63.94Q413.25 65.54 413.55 66.81L413.55 66.81L413.55 66.81Q413.86 68.08 414.75 68.87L414.75 68.87L414.75 68.87Q415.64 69.66 417.52 69.66L417.52 69.66L417.52 69.66Q418.64 69.66 419.91 69.37L419.91 69.37L419.91 69.37Q421.18 69.08 422.54 68.60ZM405.68 46.92L405.68 46.92L405.68 46.92Q403.87 46.44 401.81 46.24L401.81 46.24L401.81 46.24Q399.75 46.05 397.87 46.05L397.87 46.05L397.87 46.05Q396.84 46.05 395.92 46.11L395.92 46.11L395.92 46.11Q395.00 46.17 394.24 46.26L394.24 46.26L394.24 46.26Q393.48 46.35 392.91 46.48L392.91 46.48L392.91 46.48Q392.33 46.62 392.03 46.80L392.03 46.80L392.03 46.80Q391.48 47.08 390.76 48.12L390.76 48.12L390.76 48.12Q390.03 49.16 389.36 50.71L389.36 50.71L389.36 50.71Q388.70 52.25 388.23 54.19L388.23 54.19L388.23 54.19Q387.76 56.13 387.76 58.19L387.76 58.19L387.76 58.19Q387.76 60.15 388.33 62.14L388.33 62.14L388.33 62.14Q388.91 64.12 390.02 65.69L390.02 65.69L390.02 65.69Q391.12 67.27 392.74 68.25L392.74 68.25L392.74 68.25Q394.36 69.24 396.45 69.24L396.45 69.24L396.45 69.24Q398.42 69.24 399.93 68.60L399.93 68.60L399.93 68.60Q401.44 67.96 402.56 66.86L402.56 66.86L402.56 66.86Q403.68 65.75 404.43 64.27L404.43 64.27L404.43 64.27Q405.17 62.79 405.62 61.06L405.62 61.06L405.62 61.06Q405.62 59.79 405.62 58.35L405.62 58.35L405.62 58.35Q405.62 56.91 405.62 55.19L405.62 55.19L405.62 55.19Q405.62 53.46 405.64 51.42L405.64 51.42L405.64 51.42Q405.65 49.38 405.68 46.92ZM455.36 66.33L455.36 66.33L455.36 66.33Q453.00 68.24 450.70 69.75L450.70 69.75L450.70 69.75Q448.40 71.26 446.23 72.29L446.23 72.29L446.23 72.29Q444.07 73.32 442.09 73.82L442.09 73.82L442.09 73.82Q440.10 74.32 438.38 74.20L438.38 74.20L438.38 74.20Q436.62 74.08 435.15 73.35L435.15 73.35L435.15 73.35Q433.69 72.63 432.63 71.17L432.63 71.17L432.63 71.17Q431.57 69.72 430.99 67.45L430.99 67.45L430.99 67.45Q430.42 65.18 430.51 61.97L430.51 61.97L430.51 61.97Q430.54 60.24 430.63 57.88L430.63 57.88L430.63 57.88Q430.69 55.85 430.75 52.86L430.75 52.86L430.75 52.86Q430.81 49.86 430.87 45.86L430.87 45.86L430.87 45.86Q430.24 45.92 429.31 46.02L429.31 46.02L429.31 46.02Q428.39 46.11 427.31 46.33L427.31 46.33L427.31 46.33Q426.24 46.56 425.09 46.94L425.09 46.94L425.09 46.94Q423.94 47.32 422.82 47.89L422.82 47.89L422.82 47.89Q423.73 47.32 424.65 46.71L424.65 46.71L424.65 46.71Q425.57 46.11 426.33 45.59L426.33 45.59L426.33 45.59Q427.21 45.02 428.03 44.44L428.03 44.44L428.03 44.44Q428.84 44.02 429.48 42.90L429.48 42.90L429.48 42.90Q430.02 41.93 430.48 40.14L430.48 40.14L430.48 40.14Q430.93 38.36 430.93 35.33L430.93 35.33L430.93 35.33Q433.05 34.27 434.50 33.39L434.50 33.39L434.50 33.39Q435.96 32.51 436.87 31.91L436.87 31.91L436.87 31.91Q437.92 31.18 438.56 30.67L438.56 30.67L438.44 40.84L438.44 40.84Q439.23 40.87 439.98 40.88L439.98 40.88L439.98 40.88Q440.74 40.90 441.32 40.90L441.32 40.90L442.59 40.90L442.59 40.90Q445.19 40.96 447.52 40.84L447.52 40.84L447.52 40.84Q448.52 40.81 449.56 40.72L449.56 40.72L449.56 40.72Q450.61 40.63 451.58 40.49L451.58 40.49L451.58 40.49Q452.55 40.35 453.38 40.14L453.38 40.14L453.38 40.14Q454.21 39.93 454.79 39.66L454.79 39.66L454.79 39.66Q453.15 41.29 451.20 42.41L451.20 42.41L451.20 42.41Q449.25 43.53 447.13 44.24L447.13 44.24L447.13 44.24Q445.01 44.96 442.78 45.32L442.78 45.32L442.78 45.32Q440.56 45.68 438.38 45.80L438.38 45.80L438.38 45.80Q438.32 50.13 438.29 54.31L438.29 54.31L438.29 54.31Q438.26 58.49 438.26 62.54L438.26 62.54L438.26 62.54Q438.29 63.88 438.92 65.06L438.92 65.06L438.92 65.06Q439.56 66.24 440.69 67.12L440.69 67.12L440.69 67.12Q441.83 67.99 443.37 68.52L443.37 68.52L443.37 68.52Q444.92 69.05 446.79 69.05L446.79 69.05L446.79 69.05Q448.70 69.05 450.90 68.42L450.90 68.42L450.90 68.42Q453.09 67.78 455.36 66.33ZM486.46 61.06L486.46 61.06L486.46 61.06Q486.46 63.15 485.35 64.95L485.35 64.95L485.35 64.95Q484.25 66.75 482.46 68.27L482.46 68.27L482.46 68.27Q480.67 69.78 478.42 70.93L478.42 70.93L478.42 70.93Q476.16 72.08 473.83 72.87L473.83 72.87L473.83 72.87Q471.50 73.66 469.32 74.02L469.32 74.02L469.32 74.02Q467.14 74.38 465.51 74.26L465.51 74.26L465.51 74.26Q464.08 74.20 462.52 73.82L462.52 73.82L462.52 73.82Q460.96 73.44 459.77 72.90L459.77 72.90L459.77 72.90Q458.57 72.35 457.98 71.72L457.98 71.72L457.98 71.72Q457.39 71.08 457.94 70.48L457.94 70.48L457.94 70.48Q458.48 69.90 459.12 69.33L459.12 69.33L459.12 69.33Q459.75 68.75 460.63 68.13L460.63 68.13L460.63 68.13Q461.51 67.51 462.72 66.81L462.72 66.81L462.72 66.81Q463.93 66.12 465.63 65.27L465.63 65.27L465.63 65.27Q465.08 66.12 465.35 66.75L465.35 66.75L465.35 66.75Q465.63 67.39 466.37 67.89L466.37 67.89L466.37 67.89Q467.11 68.39 468.19 68.72L468.19 68.72L468.19 68.72Q469.26 69.05 470.30 69.27L470.30 69.27L470.30 69.27Q471.35 69.48 472.21 69.57L472.21 69.57L472.21 69.57Q473.07 69.66 473.44 69.66L473.44 69.66L473.44 69.66Q474.53 69.66 475.60 69.55L475.60 69.55L475.60 69.55Q476.68 69.45 477.52 69.08L477.52 69.08L477.52 69.08Q478.37 68.72 478.90 68.01L478.90 68.01L478.90 68.01Q479.43 67.30 479.43 66.06L479.43 66.06L479.43 66.06Q479.43 64.54 478.60 63.48L478.60 63.48L478.60 63.48Q477.77 62.42 476.42 61.71L476.42 61.71L476.42 61.71Q475.07 61.00 473.41 60.58L473.41 60.58L473.41 60.58Q471.74 60.15 470.09 59.87L470.09 59.87L470.09 59.87Q468.44 59.58 466.97 59.38L466.97 59.38L466.97 59.38Q465.51 59.18 464.57 58.94L464.57 58.94L464.57 58.94Q463.05 58.55 462.04 57.90L462.04 57.90L462.04 57.90Q461.03 57.25 460.40 56.44L460.40 56.44L460.40 56.44Q459.78 55.64 459.51 54.73L459.51 54.73L459.51 54.73Q459.24 53.83 459.24 52.92L459.24 52.92L459.24 52.92Q459.24 50.89 460.33 49.16L460.33 49.16L460.33 49.16Q461.42 47.44 463.17 46.05L463.17 46.05L463.17 46.05Q464.93 44.65 467.16 43.59L467.16 43.59L467.16 43.59Q469.38 42.53 471.67 41.81L471.67 41.81L471.67 41.81Q473.95 41.08 476.10 40.72L476.10 40.72L476.10 40.72Q478.25 40.35 479.83 40.35L479.83 40.35L479.83 40.35Q481.64 40.35 483.05 40.55L483.05 40.55L483.05 40.55Q484.46 40.75 485.33 41.02L485.33 41.02L485.33 41.02Q486.18 41.29 486.41 41.72L486.41 41.72L486.41 41.72Q486.64 42.14 486.41 42.69L486.41 42.69L486.41 42.69Q486.18 43.23 485.55 43.87L485.55 43.87L485.55 43.87Q484.91 44.50 484.03 45.17L484.03 45.17L484.03 45.17Q483.34 45.71 482.55 46.20L482.55 46.20L482.55 46.20Q481.85 46.62 481.01 47.06L481.01 47.06L481.01 47.06Q480.16 47.50 479.25 47.83L479.25 47.83L479.25 47.83Q479.70 47.26 479.63 46.80L479.63 46.80L479.63 46.80Q479.55 46.35 479.07 45.99L479.07 45.99L479.07 45.99Q478.58 45.62 477.77 45.36L477.77 45.36L477.77 45.36Q476.95 45.11 475.95 44.94L475.95 44.94L475.95 44.94Q474.95 44.77 473.85 44.70L473.85 44.70L473.85 44.70Q472.74 44.62 471.68 44.62L471.68 44.62L471.68 44.62Q470.65 44.62 469.62 44.70L469.62 44.70L469.62 44.70Q468.59 44.77 467.78 45.09L467.78 45.09L467.78 45.09Q466.96 45.41 466.44 46.08L466.44 46.08L466.44 46.08Q465.93 46.74 465.93 47.89L465.93 47.89L465.93 47.89Q465.93 48.83 466.35 49.85L466.35 49.85L466.35 49.85Q466.78 50.86 467.61 51.75L467.61 51.75L467.61 51.75Q468.44 52.65 469.68 53.34L469.68 53.34L469.68 53.34Q470.92 54.04 472.56 54.34L472.56 54.34L472.56 54.34Q473.83 54.58 475.38 54.70L475.38 54.70L475.38 54.70Q476.92 54.83 478.46 55.01L478.46 55.01L478.46 55.01Q480.01 55.19 481.44 55.52L481.44 55.52L481.44 55.52Q482.88 55.85 484.00 56.52L484.00 56.52L484.00 56.52Q485.12 57.19 485.79 58.28L485.79 58.28L485.79 58.28Q486.46 59.37 486.46 61.06Z" transform="rotate(0 243.56751954555511 45.03000068664551)"></path><defs id="SvgjsDefs1012"></defs></svg></g></svg>